<?xml version="1.0" encoding="UTF-8" standalone="no"?>
<!-- Created with Inkscape (http://www.inkscape.org/) -->

<svg
   version="1.1"
   id="svg2"
   xml:space="preserve"
   width="589.18665"
   height="143.36"
   viewBox="0 0 589.18665 143.36"
   sodipodi:docname="TCS Logo Vector.eps"
   xmlns:inkscape="http://www.inkscape.org/namespaces/inkscape"
   xmlns:sodipodi="http://sodipodi.sourceforge.net/DTD/sodipodi-0.dtd"
   xmlns="http://www.w3.org/2000/svg"
   xmlns:svg="http://www.w3.org/2000/svg"><defs
     id="defs6"><clipPath
       clipPathUnits="userSpaceOnUse"
       id="clipPath18"><path
         d="m 247.039,148.348 c -66.176,0 -94.902,38.59 -98.976,93.437 4.585,-61.664 22.027,-147.9842 95.113,-193.9842 15.242,-9.6211 32.949,-17.6524 53.523,-23.5625 12.172,-3.457 25.383,-6.1992 39.641,-8.0781 47.207,17.1289 88.117,45.1796 149.609,144.2418 -16.215,14.664 -75.59,131.664 -81.601,146.192 -16.25,-96.516 -87.043,-158.246 -157.309,-158.246"
         id="path16" /></clipPath><linearGradient
       x1="0"
       y1="0"
       x2="1"
       y2="0"
       gradientUnits="userSpaceOnUse"
       gradientTransform="matrix(-361.487,0,0,361.487,439.582,161.378)"
       spreadMethod="pad"
       id="linearGradient24"><stop
         style="stop-opacity:1;stop-color:#67419c"
         offset="0"
         id="stop20" /><stop
         style="stop-opacity:1;stop-color:#e71e81"
         offset="1"
         id="stop22" /></linearGradient><clipPath
       clipPathUnits="userSpaceOnUse"
       id="clipPath34"><path
         d="m 472.934,647.207 c -47.11,-47.172 -84.993,-118.059 -97.211,-188.039 -0.481,-7.492 -0.875,-14.965 -1.035,-22.57 -0.051,-3.547 -0.125,-7.055 -0.125,-10.598 0,-26.066 1.941,-51.625 5.71,-76.262 3.696,-24.215 12.36,-60.187 28.692,-99.804 5.98,-14.563 12.933,-29.559 21.144,-44.707 9.293,-17.196 20.145,-34.579 32.672,-51.473 13.461,-17.199 28.34,-33.152 44.555,-47.762 C 577.535,42.7305 673.109,4.91016 788.676,4.91016 c 37.222,0 78.594,2.5 118.312,10.17964 0.11,0.0508 0.219,0.0508 0.27,0.0508 10.277,2 20.351,4.3594 30.277,7.0977 C 733.449,50.6719 644.539,147.203 603.488,193.285 c -4.769,5.274 -9.246,10.918 -13.586,16.711 -2.703,3.106 -5.507,6.18 -8.086,9.453 -7.128,9.02 -13.601,18.711 -19.472,28.785 -3.485,5.996 -6.77,12.094 -9.883,18.391 -4.031,8.145 -7.625,16.695 -10.934,25.344 -13.972,36.508 -21.781,77.168 -23.132,120.547 -0.118,2.953 -0.176,5.843 -0.247,8.679 -0.031,1.594 -0.105,3.192 -0.105,4.805 0,1.695 0,3.406 0.047,5.137 0.058,6.449 0.344,12.832 0.699,19.164 0.031,0.754 0.109,1.441 0.16,2.148 0.352,6.164 0.871,12.258 1.528,18.289 15.8,147.016 111.05,256.192 279.878,256.192 43.059,0 77.547,-6.266 108.415,-16.66 -7.356,2.906 -14.754,5.742 -22.219,8.328 -50.485,17.636 -104.617,27.324 -158.215,27.324 -93.965,0 -186.398,-29.742 -255.402,-98.715"
         id="path32" /></clipPath><linearGradient
       x1="0"
       y1="0"
       x2="1"
       y2="0"
       gradientUnits="userSpaceOnUse"
       gradientTransform="matrix(0,-779.363,-779.363,0,656.049,730.646)"
       spreadMethod="pad"
       id="linearGradient40"><stop
         style="stop-opacity:1;stop-color:#e72e2c"
         offset="0"
         id="stop36" /><stop
         style="stop-opacity:1;stop-color:#e71e81"
         offset="1"
         id="stop38" /></linearGradient><clipPath
       clipPathUnits="userSpaceOnUse"
       id="clipPath50"><path
         d="M 0,0 H 4419 V 1075 H 0 Z"
         id="path48" /></clipPath><clipPath
       clipPathUnits="userSpaceOnUse"
       id="clipPath56"><path
         d="M 0,1004.28 0.0664063,357.664 C 0.0664063,296.066 13.4766,150.293 60.5742,88.3242 84.6406,56.7813 115.863,33.7109 150.625,19.0508 179.637,6.87109 211.031,0.539063 242.738,0.0195313 260.902,-0.210938 279.09,1.48047 297.031,5.01172 c 7.215,1.41016 14.344,3.03906 21.422,5.03908 6.156,1.7578 12.285,3.7773 18.332,6.0586 -14.453,1.832 -27.785,4.6211 -40.086,8.1289 -20.574,5.9101 -38.281,13.9414 -53.523,23.5625 C 169.785,94 149.625,178.844 145.738,259.637 v 466.586 h 183.649 c 32.445,0 58.711,26.285 58.711,59.062 0,32.383 -26.266,58.863 -58.711,58.863 H 145.738 v 160.132 c 0,38.98 -30.722,70.92 -72.1716,70.92 C 32.1602,1075.2 0,1043.26 0,1004.28"
         id="path54" /></clipPath><linearGradient
       x1="0"
       y1="0"
       x2="1"
       y2="0"
       gradientUnits="userSpaceOnUse"
       gradientTransform="matrix(0,-848.389,-848.389,0,194.049,839.56)"
       spreadMethod="pad"
       id="linearGradient62"><stop
         style="stop-opacity:1;stop-color:#e72e2c"
         offset="0"
         id="stop58" /><stop
         style="stop-opacity:1;stop-color:#e71e81"
         offset="1"
         id="stop60" /></linearGradient><clipPath
       clipPathUnits="userSpaceOnUse"
       id="clipPath72"><path
         d="M 0,0 H 4419 V 1075 H 0 Z"
         id="path70" /></clipPath><clipPath
       clipPathUnits="userSpaceOnUse"
       id="clipPath78"><path
         d="m 0,1004.28 v -0.81 c 0,-17.009 0.0507813,-309.458 0.109375,-430.911 0,165.804 63.488325,271.609 145.628625,271.609 v 160.112 c 0,38.98 -30.711,70.92 -72.1716,70.92 C 32.1602,1075.2 0,1043.26 0,1004.28"
         id="path76" /></clipPath><linearGradient
       x1="0"
       y1="0"
       x2="1"
       y2="0"
       gradientUnits="userSpaceOnUse"
       gradientTransform="matrix(0,-481.821,-481.821,0,72.8689,1063.12)"
       spreadMethod="pad"
       id="linearGradient84"><stop
         style="stop-opacity:1;stop-color:#f9cb09"
         offset="0"
         id="stop80" /><stop
         style="stop-opacity:1;stop-color:#e84226"
         offset="1"
         id="stop82" /></linearGradient><clipPath
       clipPathUnits="userSpaceOnUse"
       id="clipPath94"><path
         d="m 1299.07,804.652 h 0.32 v -0.336 h -0.32 z"
         id="path92" /></clipPath><linearGradient
       x1="0"
       y1="0"
       x2="1"
       y2="0"
       gradientUnits="userSpaceOnUse"
       gradientTransform="matrix(334.584,0,0,334.584,1131.94,804.483)"
       spreadMethod="pad"
       id="linearGradient104"><stop
         style="stop-opacity:1;stop-color:#88c72a"
         offset="0"
         id="stop96" /><stop
         style="stop-opacity:1;stop-color:#6dc8c8"
         offset="0.34"
         id="stop98" /><stop
         style="stop-opacity:1;stop-color:#829bd6"
         offset="0.69"
         id="stop100" /><stop
         style="stop-opacity:1;stop-color:#9873be"
         offset="1"
         id="stop102" /></linearGradient><clipPath
       clipPathUnits="userSpaceOnUse"
       id="clipPath114"><path
         d="m 1585.1,35.9297 h 1.01 v -0.4414 h -1.01 z"
         id="path112" /></clipPath><linearGradient
       x1="0"
       y1="0"
       x2="1"
       y2="0"
       gradientUnits="userSpaceOnUse"
       gradientTransform="matrix(2063.85,0,0,2063.85,1724.17,35.71)"
       spreadMethod="pad"
       id="linearGradient124"><stop
         style="stop-opacity:1;stop-color:#88c72a"
         offset="0"
         id="stop116" /><stop
         style="stop-opacity:1;stop-color:#6dc8c8"
         offset="0.34"
         id="stop118" /><stop
         style="stop-opacity:1;stop-color:#829bd6"
         offset="0.69"
         id="stop120" /><stop
         style="stop-opacity:1;stop-color:#9873be"
         offset="1"
         id="stop122" /></linearGradient><clipPath
       clipPathUnits="userSpaceOnUse"
       id="clipPath134"><path
         d="m 1551.08,229.191 c 0,-73.457 -51.34,-107.363 -130.67,-107.363 -64.18,0 -108.47,21.074 -141.16,33.906 -52.49,19.786 -89.77,-16.355 -89.77,-53.722 0,-25.0901 17.71,-41.9339 38.51,-52.9729 20.11,-10.75 42.27,-19.0078 63.95,-25.9102 44.18,-14.07031 90.46,-19.05859 136.65,-19.05859 31.36,0 62.93,2.0586 93.66,8.67969 28.67,6.2188 61.66,16.3086 84.11,36.1914 2.45,2.1992 4.76,4.6484 6.65,7.3594 13.75,19.7148 17.01,46.7192 17.01,67.9652 0,69.07 -34.83,128.269 -87.18,177.843 -16.82,15.922 -30.6,32.582 -54.12,44.891 41.77,-31.27 62.36,-68.805 62.36,-117.809"
         id="path132" /></clipPath><linearGradient
       x1="0"
       y1="0"
       x2="1"
       y2="0"
       gradientUnits="userSpaceOnUse"
       gradientTransform="matrix(484.147,306.915,306.915,-484.147,1256.29,12.5699)"
       spreadMethod="pad"
       id="linearGradient140"><stop
         style="stop-opacity:1;stop-color:#67419c"
         offset="0"
         id="stop136" /><stop
         style="stop-opacity:1;stop-color:#e71e81"
         offset="1"
         id="stop138" /></linearGradient><clipPath
       clipPathUnits="userSpaceOnUse"
       id="clipPath150"><path
         d="m 906.988,15.1406 h 0.27 v -0.0508 h -0.27 z"
         id="path148" /></clipPath><linearGradient
       x1="0"
       y1="0"
       x2="1"
       y2="0"
       gradientUnits="userSpaceOnUse"
       gradientTransform="matrix(0.268272,0,0,0.268272,906.988,15.1099)"
       spreadMethod="pad"
       id="linearGradient160"><stop
         style="stop-opacity:1;stop-color:#88c72a"
         offset="0"
         id="stop152" /><stop
         style="stop-opacity:1;stop-color:#6dc8c8"
         offset="0.34"
         id="stop154" /><stop
         style="stop-opacity:1;stop-color:#829bd6"
         offset="0.69"
         id="stop156" /><stop
         style="stop-opacity:1;stop-color:#9873be"
         offset="1"
         id="stop158" /></linearGradient><clipPath
       clipPathUnits="userSpaceOnUse"
       id="clipPath170"><path
         d="m 1270.26,777.578 h 0.02 v -0.015 h -0.02 z"
         id="path168" /></clipPath><linearGradient
       x1="0"
       y1="0"
       x2="1"
       y2="0"
       gradientUnits="userSpaceOnUse"
       gradientTransform="matrix(1.95663,0,0,1.95663,1269.27,777.571)"
       spreadMethod="pad"
       id="linearGradient180"><stop
         style="stop-opacity:1;stop-color:#88c72a"
         offset="0"
         id="stop172" /><stop
         style="stop-opacity:1;stop-color:#6dc8c8"
         offset="0.34"
         id="stop174" /><stop
         style="stop-opacity:1;stop-color:#829bd6"
         offset="0.69"
         id="stop176" /><stop
         style="stop-opacity:1;stop-color:#9873be"
         offset="1"
         id="stop178" /></linearGradient><clipPath
       clipPathUnits="userSpaceOnUse"
       id="clipPath190"><path
         d="m 1270.28,777.578 -0.02,-0.015 c -2.83,-2.52 -5.5,-5.137 -8.05,-7.809 -20.18,-19.481 -36.47,-42.356 -49.44,-67.277 -11.52,-22.032 -20.62,-45.477 -28.16,-68.922 -8.52,-26.45 -15.34,-53.625 -21.42,-81.149 -20.34,-91.074 -33.18,-185.152 -76.63,-264.32 -34.76,-63.211 -86.42,-107.633 -151.298,-138.684 -38.192,-16.773 -80.024,-27.843 -134.907,-27.843 -26.402,0 -50.953,2.707 -73.785,7.894 -57.074,12.965 -102.695,41.363 -136.668,80.543 4.34,-5.793 8.817,-11.437 13.586,-16.711 41.051,-46.082 129.961,-142.6131 334.047,-171.0467 19.985,5.4101 39.149,12.4101 56.629,21.3633 19.966,10.2578 38.826,21.9882 56.716,34.832 28.37,20.5898 54.07,44.1994 76.97,70.3674 37.12,42.301 66.78,90.953 88.87,143.351 8.71,20.692 16.24,41.95 22.53,63.633 3.5,11.871 6.7,23.914 9.66,35.973 9.57,38.422 19.78,88.215 28.02,127.164 0.16,0.738 -29.28,75.351 -31.34,121.031 -1.36,30.668 3.57,62.91 13.15,94.434 2.34,14.742 6.51,20.738 13.25,34.426 0.63,1.261 2.33,2.433 2.95,3.695 0.87,0.707 10.88,7.742 8.02,9.605 0,0.035 18,19.867 18,19.867 -2.47,-1.832 -28.42,-22.453 -30.68,-24.402"
         id="path188" /></clipPath><linearGradient
       x1="0"
       y1="0"
       x2="1"
       y2="0"
       gradientUnits="userSpaceOnUse"
       gradientTransform="matrix(798.529,0,0,-798.529,591.349,412.11)"
       spreadMethod="pad"
       id="linearGradient196"><stop
         style="stop-opacity:1;stop-color:#e71e81"
         offset="0"
         id="stop192" /><stop
         style="stop-opacity:1;stop-color:#67419c"
         offset="1"
         id="stop194" /></linearGradient><clipPath
       clipPathUnits="userSpaceOnUse"
       id="clipPath206"><path
         d="m 664.93,827.828 c -33.657,-9.691 -68.856,-22.976 -98.598,-41.785 -28.926,-18.34 -55.789,-39.699 -79.602,-63.934 -3.539,-3.609 -7.214,-7.105 -10.589,-10.796 -12.328,-13.555 -23.645,-28.047 -33.825,-43.415 -6.128,-9.488 -11.906,-19.246 -17.238,-29.324 -0.015,-0.047 -0.043,-0.066 -0.074,-0.097 -28.07,-53.086 -45.016,-113.899 -49.281,-179.309 12.218,69.98 50.101,140.867 97.211,188.039 108.386,108.356 274.636,119.875 413.617,71.391 7.465,-2.586 14.863,-5.422 22.219,-8.328 16.785,-6.7 33.3,-14.207 49.39,-22.25 4.727,-2.387 9.453,-4.84 14.129,-7.442 10.473,-5.812 21.035,-10.445 35.011,-10.445 5.17,0 10.17,0.707 14.99,2.133 24.61,6.851 43.32,30.379 43.32,59.683 0,22.188 -10.48,36.141 -26.79,47.813 -50.648,36.476 -116.984,51.574 -177.875,59.351 -25.179,3.157 -50.261,4.989 -75.211,4.989 -40.562,0 -80.886,-4.821 -120.804,-16.274"
         id="path204" /></clipPath><linearGradient
       x1="0"
       y1="0"
       x2="1"
       y2="0"
       gradientUnits="userSpaceOnUse"
       gradientTransform="matrix(629.186,0,0,-629.186,375.721,651.634)"
       spreadMethod="pad"
       id="linearGradient212"><stop
         style="stop-opacity:1;stop-color:#f9cb09"
         offset="0"
         id="stop208" /><stop
         style="stop-opacity:1;stop-color:#e84226"
         offset="1"
         id="stop210" /></linearGradient><clipPath
       clipPathUnits="userSpaceOnUse"
       id="clipPath222"><path
         d="m 1411.63,841.633 c -32.29,-3.496 -64.13,-11.891 -92.44,-28.098 -1.72,-0.972 -3.42,-1.98 -5.06,-2.972 l -6.58,-4.098 c -25.14,-15.469 -41.37,-42.488 -49.99,-70.129 -5.5,-17.703 -8.41,-36.563 -3.67,-54.766 7.37,-28.418 31.09,-49.461 55.44,-65.867 43.09,-29.055 91.59,-49.223 135.73,-76.715 -23.19,17.399 -46.02,36.508 -60.67,61.582 -14.66,25.024 -19.96,57.219 -7.01,83.164 10.41,20.793 31.26,35.082 53.59,41.414 22.35,6.332 46.17,5.473 69.14,1.95 26.45,-4.032 52.29,-11.489 77.59,-20.321 12.84,-4.484 25.92,-9.39 39.56,-9.218 16.28,0.117 32.37,8.007 42.46,20.824 10.11,12.844 14,30.312 10.38,46.215 -5.85,25.14 -28.48,42.941 -51.97,53.64 -33.69,15.282 -71.14,20.051 -108.02,23.039 -18.38,1.512 -36.84,2.555 -55.28,2.555 -14.45,0 -28.85,-0.656 -43.2,-2.199"
         id="path220" /></clipPath><linearGradient
       x1="0"
       y1="0"
       x2="1"
       y2="0"
       gradientUnits="userSpaceOnUse"
       gradientTransform="matrix(406.621,0,0,-406.621,1262.62,691.41)"
       spreadMethod="pad"
       id="linearGradient228"><stop
         style="stop-opacity:1;stop-color:#f9cb09"
         offset="0"
         id="stop224" /><stop
         style="stop-opacity:1;stop-color:#e84226"
         offset="1"
         id="stop226" /></linearGradient><clipPath
       clipPathUnits="userSpaceOnUse"
       id="clipPath238"><path
         d="m 1280.67,512.656 c 22.53,-36.461 58.1,-61.734 92.63,-85.902 37.96,-26.535 75.69,-53.371 114.31,-79.031 27.05,-17.969 51.06,-40.274 72.33,-64.758 38.64,-44.453 72.22,-100.192 69.43,-161.524 -0.46,-11 -1.8,-22.0152 -5,-32.6441 -5.44,-17.9063 -16.96,-41.336 -33.74,-51.2852 85.28,50.543 120.5,148.9413 98.33,244.2263 -21.46,92.285 -95.54,154.942 -169.15,208.145 -14.65,10.613 -29.67,20.824 -44.87,30.715 -15.16,9.91 -30.67,19.199 -46.32,28.265 -12.85,7.422 -25.56,15.114 -38.25,22.754 -17.89,10.735 -35.72,21.582 -53.02,33.223 -27.54,18.555 -55.98,40.59 -70.8,71.101 -9.17,18.895 -12.68,38.899 -9.56,58.461 -21.16,-69.781 -15.63,-158.3 23.68,-221.746"
         id="path236" /></clipPath><linearGradient
       x1="0"
       y1="0"
       x2="1"
       y2="0"
       gradientUnits="userSpaceOnUse"
       gradientTransform="matrix(0,-695.948,-695.948,0,1470.13,716.123)"
       spreadMethod="pad"
       id="linearGradient244"><stop
         style="stop-opacity:1;stop-color:#e72e2c"
         offset="0"
         id="stop240" /><stop
         style="stop-opacity:1;stop-color:#e71e81"
         offset="1"
         id="stop242" /></linearGradient></defs><sodipodi:namedview
     id="namedview4"
     pagecolor="#ffffff"
     bordercolor="#666666"
     borderopacity="1.0"
     inkscape:pageshadow="2"
     inkscape:pageopacity="0.0"
     inkscape:pagecheckerboard="0" /><g
     id="g8"
     inkscape:groupmode="layer"
     inkscape:label="ink_ext_XXXXXX"
     transform="matrix(1.3333333,0,0,-1.3333333,0,143.36)"><g
       id="g10"
       transform="scale(0.1)"><g
         id="g12"><g
           id="g14"
           clip-path="url(#clipPath18)"><path
             d="m 247.039,148.348 c -66.176,0 -94.902,38.59 -98.976,93.437 4.585,-61.664 22.027,-147.9842 95.113,-193.9842 15.242,-9.6211 32.949,-17.6524 53.523,-23.5625 12.172,-3.457 25.383,-6.1992 39.641,-8.0781 47.207,17.1289 88.117,45.1796 149.609,144.2418 -16.215,14.664 -75.59,131.664 -81.601,146.192 -16.25,-96.516 -87.043,-158.246 -157.309,-158.246"
             style="fill:url(#linearGradient24);fill-opacity:1;fill-rule:nonzero;stroke:none"
             id="path26" /></g></g><g
         id="g28"><g
           id="g30"
           clip-path="url(#clipPath34)"><path
             d="m 472.934,647.207 c -47.11,-47.172 -84.993,-118.059 -97.211,-188.039 -0.481,-7.492 -0.875,-14.965 -1.035,-22.57 -0.051,-3.547 -0.125,-7.055 -0.125,-10.598 0,-26.066 1.941,-51.625 5.71,-76.262 3.696,-24.215 12.36,-60.187 28.692,-99.804 5.98,-14.563 12.933,-29.559 21.144,-44.707 9.293,-17.196 20.145,-34.579 32.672,-51.473 13.461,-17.199 28.34,-33.152 44.555,-47.762 C 577.535,42.7305 673.109,4.91016 788.676,4.91016 c 37.222,0 78.594,2.5 118.312,10.17964 0.11,0.0508 0.219,0.0508 0.27,0.0508 10.277,2 20.351,4.3594 30.277,7.0977 C 733.449,50.6719 644.539,147.203 603.488,193.285 c -4.769,5.274 -9.246,10.918 -13.586,16.711 -2.703,3.106 -5.507,6.18 -8.086,9.453 -7.128,9.02 -13.601,18.711 -19.472,28.785 -3.485,5.996 -6.77,12.094 -9.883,18.391 -4.031,8.145 -7.625,16.695 -10.934,25.344 -13.972,36.508 -21.781,77.168 -23.132,120.547 -0.118,2.953 -0.176,5.843 -0.247,8.679 -0.031,1.594 -0.105,3.192 -0.105,4.805 0,1.695 0,3.406 0.047,5.137 0.058,6.449 0.344,12.832 0.699,19.164 0.031,0.754 0.109,1.441 0.16,2.148 0.352,6.164 0.871,12.258 1.528,18.289 15.8,147.016 111.05,256.192 279.878,256.192 43.059,0 77.547,-6.266 108.415,-16.66 -7.356,2.906 -14.754,5.742 -22.219,8.328 -50.485,17.636 -104.617,27.324 -158.215,27.324 -93.965,0 -186.398,-29.742 -255.402,-98.715"
             style="fill:url(#linearGradient40);fill-opacity:1;fill-rule:nonzero;stroke:none"
             id="path42" /></g></g><g
         id="g44"><g
           id="g46"
           clip-path="url(#clipPath50)"><g
             id="g52"
             clip-path="url(#clipPath56)"><path
               d="m 225,0 v 1 h -10 v 1 h -6 v 1 h -6 v 1 h -7 v 1 h -4 v 1 h -4 v 1 h -4 v 1 h -4 v 1 h -4 v 1 h -4 v 1 h -3 v 1 h -2 v 1 h -3 v 1 h -3 v 1 h -3 v 1 h -3 v 1 h -2 v 1 h -3 v 1 h -2 v 1 h -2 v 1 h -3 v 1 h -2 v 1 h -2 v 1 h -2 v 1 h -1 v 1 h -2 v 1 h -2 v 1 h -2 v 1 h -2 v 1 h -2 v 1 h -2 v 1 h -1 v 1 h -2 v 1 h -1 v 1 h -2 v 1 h -1 v 1 h -2 v 1 h -1 v 1 h -2 v 1 h -1 v 1 h -2 v 1 h -1 v 1 h -2 v 1 h -1 v 1 h -2 v 1 h -1 v 1 h -2 v 1 h -1 v 1 h -1 v 1 h -1 v 1 h -1 v 1 h -1 v 1 h -2 v 1 h -1 v 1 h -1 v 1 h -1 v 1 h -1 v 1 h -1 v 1 h -1 v 1 h -2 v 1 h -1 v 1 h -1 v 1 h -1 v 1 h -1 v 1 h -1 v 1 h -1 v 1 h -1 v 1 h -1 v 1 h -1 v 1 h -1 v 1 h -1 v 1 h -1 v 1 h -1 v 1 h -1 v 1 h -1 v 2 h -1 v 1 h -1 v 1 h -1 v 1 h -1 v 1 h -1 v 1 h -1 v 1 h -1 v 2 h -1 v 1 h -1 v 1 h -1 v 2 h -1 v 1 h -1 v 1 h -1 v 2 h -1 v 1 h -1 v 2 h -1 v 1 h -1 v 2 h -1 v 2 h -1 v 1 h -1 v 2 h -1 v 2 h -1 v 2 h -1 v 2 h -1 v 2 h -1 v 2 h -1 v 2 h -1 v 2 h -1 v 2 h -1 v 2 h -1 v 3 h -1 v 2 h -1 v 2 h -1 v 3 h -1 v 3 h -1 v 2 h -1 v 3 h -1 v 3 h -1 v 2 h -1 v 3 h -1 v 3 h -1 v 4 h -1 v 3 h -1 v 3 h -1 v 3 h -1 v 4 h -1 v 4 h -1 v 3 h -1 v 4 h -1 v 4 h -1 v 4 h -1 v 5 h -1 v 4 h -1 v 5 h -1 v 4 h -1 v 6 h -1 v 5 h -1 v 5 h -1 v 6 h -1 v 6 h -1 v 6 H 9 v 6 H 8 v 8 H 7 v 7 H 6 v 8 H 5 v 9 H 4 v 9 H 3 v 11 H 2 v 13 H 1 v 16 H 0 v 690 h 1 v 5 h 1 v 3 h 1 v 3 h 1 v 3 h 1 v 3 h 1 v 2 h 1 v 1 h 1 v 2 h 1 v 2 h 1 v 2 h 1 v 2 h 1 v 1 h 1 v 1 h 1 v 1 h 1 v 2 h 1 v 1 h 1 v 1 h 1 v 1 h 1 v 1 h 1 v 2 h 2 v 1 h 1 v 1 h 1 v 1 h 1 v 1 h 2 v 1 h 1 v 1 h 1 v 1 h 1 v 1 h 2 v 1 h 1 v 1 h 2 v 1 h 2 v 1 h 2 v 1 h 2 v 1 h 2 v 1 h 2 v 1 h 4 v 1 h 3 v 1 h 4 v 1 h 4 v 1 h 27 v -1 h 5 v -1 h 3 v -1 h 3 v -1 h 3 v -1 h 3 v -1 h 2 v -1 h 2 v -1 h 2 v -1 h 1 v -1 h 2 v -1 h 2 v -1 h 1 v -1 h 2 v -1 h 1 v -1 h 1 v -1 h 1 v -1 h 1 v -1 h 2 v -1 h 1 v -1 h 1 v -1 h 1 v -1 h 1 v -2 h 1 v -1 h 1 v -1 h 1 v -1 h 1 v -1 h 1 v -2 h 1 v -1 h 1 v -2 h 1 v -2 h 1 v -2 h 1 v -1 h 1 v -2 h 1 v -2 h 1 v -3 h 1 v -3 h 1 v -4 h 1 v -3 h 1 v -6 h 1 V 845 h 188 v -1 h 7 v -1 h 4 v -1 h 3 v -1 h 3 v -1 h 3 v -1 h 1 v -1 h 2 v -1 h 2 v -1 h 2 v -1 h 2 v -1 h 1 v -1 h 1 v -1 h 1 v -1 h 2 v -1 h 1 v -1 h 1 v -1 h 1 v -1 h 1 v -1 h 1 v -1 h 1 v -1 h 1 v -2 h 1 v -1 h 1 v -1 h 1 v -1 h 1 v -2 h 1 v -2 h 1 v -2 h 1 v -2 h 1 v -1 h 1 v -3 h 1 v -3 h 1 v -3 h 1 v -4 h 1 v -8 h 1 v -8 h -1 v -7 h -1 v -4 h -1 v -3 h -1 v -4 h -1 v -2 h -1 v -2 h -1 v -2 h -1 v -2 h -1 v -2 h -1 v -1 h -1 v -2 h -1 v -1 h -1 v -1 h -1 v -1 h -1 v -1 h -1 v -2 h -1 v -1 h -1 v -1 h -1 v -1 h -2 v -1 h -1 v -1 h -1 v -1 h -1 v -1 h -1 v -1 h -2 v -1 h -2 v -1 h -1 v -1 h -2 v -1 h -2 v -1 h -2 v -1 h -3 v -1 h -3 v -1 h -3 v -1 h -5 v -1 H 146 V 255 h 1 v -14 h 1 v -11 h 1 v -8 h 1 v -8 h 1 v -6 h 1 v -7 h 1 v -5 h 1 v -5 h 1 v -5 h 1 v -4 h 1 v -4 h 1 v -4 h 1 v -4 h 1 v -4 h 1 v -3 h 1 v -3 h 1 v -4 h 1 v -3 h 1 v -2 h 1 v -3 h 1 v -3 h 1 v -3 h 1 v -2 h 1 v -2 h 1 v -3 h 1 v -2 h 1 v -2 h 1 v -3 h 1 v -2 h 1 v -2 h 1 v -2 h 1 v -2 h 1 v -2 h 1 v -2 h 1 v -1 h 1 v -2 h 1 v -2 h 1 v -1 h 1 v -2 h 1 v -2 h 1 v -1 h 1 v -2 h 1 v -2 h 1 v -1 h 1 v -1 h 1 v -2 h 1 v -1 h 1 v -2 h 1 v -1 h 1 v -1 h 1 v -2 h 1 v -1 h 1 v -1 h 1 v -1 h 1 v -2 h 1 v -1 h 1 v -1 h 1 v -1 h 1 v -1 h 1 v -1 h 1 v -2 h 1 v -1 h 1 v -1 h 1 v -1 h 1 v -1 h 1 v -1 h 1 v -1 h 1 v -1 h 1 v -1 h 1 v -1 h 1 v -1 h 1 v -1 h 2 v -1 h 1 v -1 h 1 v -1 h 1 v -1 h 1 v -1 h 2 v -1 h 1 v -1 h 1 v -1 h 1 v -1 h 1 v -1 h 2 v -1 h 1 v -1 h 2 v -1 h 1 v -1 h 1 v -1 h 2 v -1 h 1 v -1 h 2 v -1 h 1 v -1 h 2 v -1 h 2 v -1 h 1 v -1 h 2 v -1 h 2 v -1 h 2 v -1 h 2 v -1 h 2 v -1 h 2 v -1 h 2 v -1 h 2 v -1 h 2 v -1 h 2 v -1 h 2 v -1 h 3 v -1 h 2 v -1 h 3 v -1 h 3 v -1 h 2 v -1 h 3 v -1 h 3 v -1 h 2 v -1 h 4 v -1 h 3 v -1 h 4 v -1 h 4 v -1 h 4 v -1 h 4 v -1 h 6 v -1 h 5 v -1 h 6 v -1 h 6 v -2 h -3 v -1 h -3 v -1 h -3 v -1 h -3 v -1 h -3 v -1 h -3 V 9 h -4 V 8 h -4 V 7 h -5 V 6 h -4 V 5 h -5 V 4 h -5 V 3 h -7 V 2 h -8 V 1 h -9 V 0"
               style="fill:url(#linearGradient62);fill-opacity:1;fill-rule:nonzero;stroke:none"
               id="path64" /></g></g></g><g
         id="g66"><g
           id="g68"
           clip-path="url(#clipPath72)"><g
             id="g74"
             clip-path="url(#clipPath78)"><path
               d="m 0,572 v 444 h 1 v 5 h 1 v 3 h 1 v 3 h 1 v 3 h 1 v 3 h 1 v 2 h 1 v 1 h 1 v 2 h 1 v 2 h 1 v 2 h 1 v 2 h 1 v 1 h 1 v 1 h 1 v 1 h 1 v 2 h 1 v 1 h 1 v 1 h 1 v 1 h 1 v 1 h 1 v 2 h 2 v 1 h 1 v 1 h 1 v 1 h 1 v 1 h 2 v 1 h 1 v 1 h 1 v 1 h 1 v 1 h 2 v 1 h 1 v 1 h 2 v 1 h 2 v 1 h 2 v 1 h 2 v 1 h 2 v 1 h 2 v 1 h 4 v 1 h 3 v 1 h 4 v 1 h 4 v 1 h 27 v -1 h 5 v -1 h 3 v -1 h 3 v -1 h 3 v -1 h 3 v -1 h 2 v -1 h 2 v -1 h 2 v -1 h 1 v -1 h 2 v -1 h 2 v -1 h 1 v -1 h 2 v -1 h 1 v -1 h 1 v -1 h 1 v -1 h 1 v -1 h 2 v -1 h 1 v -1 h 1 v -1 h 1 v -1 h 1 v -2 h 1 v -1 h 1 v -1 h 1 v -1 h 1 v -1 h 1 v -2 h 1 v -1 h 1 v -2 h 1 v -2 h 1 v -2 h 1 v -1 h 1 v -2 h 1 v -2 h 1 v -3 h 1 v -3 h 1 v -4 h 1 v -3 h 1 v -6 h 1 V 844 h -5 v -1 h -9 v -1 h -5 v -1 h -4 v -1 h -4 v -1 h -3 v -1 h -3 v -1 h -2 v -1 h -2 v -1 h -3 v -1 h -2 v -1 h -2 v -1 h -2 v -1 h -1 v -1 h -2 v -1 h -2 v -1 h -1 v -1 h -2 v -1 h -2 v -1 h -1 v -1 h -1 v -1 h -2 v -1 h -1 v -1 h -1 v -1 h -1 v -1 h -2 v -1 h -1 v -1 h -1 v -1 h -1 v -1 h -1 v -1 h -1 v -1 h -1 v -1 h -1 v -1 h -1 v -1 h -1 v -1 h -1 v -1 h -1 v -1 h -1 v -1 h -1 v -1 h -1 v -1 h -1 v -1 h -1 v -1 h -1 v -1 h -1 v -2 h -1 v -1 h -1 v -1 h -1 v -2 h -1 v -1 h -1 v -1 h -1 v -2 h -1 v -1 h -1 v -1 h -1 v -1 h -1 v -2 h -1 v -2 h -1 v -1 h -1 v -2 h -1 v -1 h -1 v -2 h -1 v -2 h -1 v -1 h -1 v -2 h -1 v -2 h -1 v -1 h -1 v -2 h -1 v -2 h -1 v -2 h -1 v -2 h -1 v -2 h -1 v -2 h -1 v -2 h -1 v -2 h -1 v -2 h -1 v -3 h -1 v -2 h -1 v -3 h -1 v -2 h -1 v -3 h -1 v -2 h -1 v -2 h -1 v -3 h -1 v -3 h -1 v -3 h -1 v -3 h -1 v -3 h -1 v -3 h -1 v -3 h -1 v -3 h -1 v -4 h -1 v -4 h -1 v -4 h -1 v -4 h -1 v -4 h -1 v -4 h -1 v -4 h -1 v -6 h -1 v -5 H 9 v -5 H 8 v -6 H 7 v -6 H 6 v -8 H 5 v -8 H 4 v -8 H 3 V 618 H 2 V 605 H 1 v -33"
               style="fill:url(#linearGradient84);fill-opacity:1;fill-rule:nonzero;stroke:none"
               id="path86" /></g></g></g><g
         id="g88"><g
           id="g90"
           clip-path="url(#clipPath94)"><path
             d="m 1299.07,804.652 h 0.32 v -0.336 h -0.32 v 0.336"
             style="fill:url(#linearGradient104);fill-opacity:1;fill-rule:nonzero;stroke:none"
             id="path106" /></g></g><g
         id="g108"><g
           id="g110"
           clip-path="url(#clipPath114)"><path
             d="m 1585.1,35.9297 h 1.01 v -0.4414 h -1.01 v 0.4414"
             style="fill:url(#linearGradient124);fill-opacity:1;fill-rule:nonzero;stroke:none"
             id="path126" /></g></g><g
         id="g128"><g
           id="g130"
           clip-path="url(#clipPath134)"><path
             d="m 1551.08,229.191 c 0,-73.457 -51.34,-107.363 -130.67,-107.363 -64.18,0 -108.47,21.074 -141.16,33.906 -52.49,19.786 -89.77,-16.355 -89.77,-53.722 0,-25.0901 17.71,-41.9339 38.51,-52.9729 20.11,-10.75 42.27,-19.0078 63.95,-25.9102 44.18,-14.07031 90.46,-19.05859 136.65,-19.05859 31.36,0 62.93,2.0586 93.66,8.67969 28.67,6.2188 61.66,16.3086 84.11,36.1914 2.45,2.1992 4.76,4.6484 6.65,7.3594 13.75,19.7148 17.01,46.7192 17.01,67.9652 0,69.07 -34.83,128.269 -87.18,177.843 -16.82,15.922 -30.6,32.582 -54.12,44.891 41.77,-31.27 62.36,-68.805 62.36,-117.809"
             style="fill:url(#linearGradient140);fill-opacity:1;fill-rule:nonzero;stroke:none"
             id="path142" /></g></g><g
         id="g144"><g
           id="g146"
           clip-path="url(#clipPath150)"><path
             d="m 906.988,15.1406 h 0.27 v -0.0508 h -0.27 v 0.0508"
             style="fill:url(#linearGradient160);fill-opacity:1;fill-rule:nonzero;stroke:none"
             id="path162" /></g></g><g
         id="g164"><g
           id="g166"
           clip-path="url(#clipPath170)"><path
             d="m 1270.26,777.578 h 0.02 v -0.015 h -0.02 v 0.015"
             style="fill:url(#linearGradient180);fill-opacity:1;fill-rule:nonzero;stroke:none"
             id="path182" /></g></g><g
         id="g184"><g
           id="g186"
           clip-path="url(#clipPath190)"><path
             d="m 1270.28,777.578 -0.02,-0.015 c -2.83,-2.52 -5.5,-5.137 -8.05,-7.809 -20.18,-19.481 -36.47,-42.356 -49.44,-67.277 -11.52,-22.032 -20.62,-45.477 -28.16,-68.922 -8.52,-26.45 -15.34,-53.625 -21.42,-81.149 -20.34,-91.074 -33.18,-185.152 -76.63,-264.32 -34.76,-63.211 -86.42,-107.633 -151.298,-138.684 -38.192,-16.773 -80.024,-27.843 -134.907,-27.843 -26.402,0 -50.953,2.707 -73.785,7.894 -57.074,12.965 -102.695,41.363 -136.668,80.543 4.34,-5.793 8.817,-11.437 13.586,-16.711 41.051,-46.082 129.961,-142.6131 334.047,-171.0467 19.985,5.4101 39.149,12.4101 56.629,21.3633 19.966,10.2578 38.826,21.9882 56.716,34.832 28.37,20.5898 54.07,44.1994 76.97,70.3674 37.12,42.301 66.78,90.953 88.87,143.351 8.71,20.692 16.24,41.95 22.53,63.633 3.5,11.871 6.7,23.914 9.66,35.973 9.57,38.422 19.78,88.215 28.02,127.164 0.16,0.738 -29.28,75.351 -31.34,121.031 -1.36,30.668 3.57,62.91 13.15,94.434 2.34,14.742 6.51,20.738 13.25,34.426 0.63,1.261 2.33,2.433 2.95,3.695 0.87,0.707 10.88,7.742 8.02,9.605 0,0.035 18,19.867 18,19.867 -2.47,-1.832 -28.42,-22.453 -30.68,-24.402"
             style="fill:url(#linearGradient196);fill-opacity:1;fill-rule:nonzero;stroke:none"
             id="path198" /></g></g><g
         id="g200"><g
           id="g202"
           clip-path="url(#clipPath206)"><path
             d="m 664.93,827.828 c -33.657,-9.691 -68.856,-22.976 -98.598,-41.785 -28.926,-18.34 -55.789,-39.699 -79.602,-63.934 -3.539,-3.609 -7.214,-7.105 -10.589,-10.796 -12.328,-13.555 -23.645,-28.047 -33.825,-43.415 -6.128,-9.488 -11.906,-19.246 -17.238,-29.324 -0.015,-0.047 -0.043,-0.066 -0.074,-0.097 -28.07,-53.086 -45.016,-113.899 -49.281,-179.309 12.218,69.98 50.101,140.867 97.211,188.039 108.386,108.356 274.636,119.875 413.617,71.391 7.465,-2.586 14.863,-5.422 22.219,-8.328 16.785,-6.7 33.3,-14.207 49.39,-22.25 4.727,-2.387 9.453,-4.84 14.129,-7.442 10.473,-5.812 21.035,-10.445 35.011,-10.445 5.17,0 10.17,0.707 14.99,2.133 24.61,6.851 43.32,30.379 43.32,59.683 0,22.188 -10.48,36.141 -26.79,47.813 -50.648,36.476 -116.984,51.574 -177.875,59.351 -25.179,3.157 -50.261,4.989 -75.211,4.989 -40.562,0 -80.886,-4.821 -120.804,-16.274"
             style="fill:url(#linearGradient212);fill-opacity:1;fill-rule:nonzero;stroke:none"
             id="path214" /></g></g><g
         id="g216"><g
           id="g218"
           clip-path="url(#clipPath222)"><path
             d="m 1411.63,841.633 c -32.29,-3.496 -64.13,-11.891 -92.44,-28.098 -1.72,-0.972 -3.42,-1.98 -5.06,-2.972 l -6.58,-4.098 c -25.14,-15.469 -41.37,-42.488 -49.99,-70.129 -5.5,-17.703 -8.41,-36.563 -3.67,-54.766 7.37,-28.418 31.09,-49.461 55.44,-65.867 43.09,-29.055 91.59,-49.223 135.73,-76.715 -23.19,17.399 -46.02,36.508 -60.67,61.582 -14.66,25.024 -19.96,57.219 -7.01,83.164 10.41,20.793 31.26,35.082 53.59,41.414 22.35,6.332 46.17,5.473 69.14,1.95 26.45,-4.032 52.29,-11.489 77.59,-20.321 12.84,-4.484 25.92,-9.39 39.56,-9.218 16.28,0.117 32.37,8.007 42.46,20.824 10.11,12.844 14,30.312 10.38,46.215 -5.85,25.14 -28.48,42.941 -51.97,53.64 -33.69,15.282 -71.14,20.051 -108.02,23.039 -18.38,1.512 -36.84,2.555 -55.28,2.555 -14.45,0 -28.85,-0.656 -43.2,-2.199"
             style="fill:url(#linearGradient228);fill-opacity:1;fill-rule:nonzero;stroke:none"
             id="path230" /></g></g><g
         id="g232"><g
           id="g234"
           clip-path="url(#clipPath238)"><path
             d="m 1280.67,512.656 c 22.53,-36.461 58.1,-61.734 92.63,-85.902 37.96,-26.535 75.69,-53.371 114.31,-79.031 27.05,-17.969 51.06,-40.274 72.33,-64.758 38.64,-44.453 72.22,-100.192 69.43,-161.524 -0.46,-11 -1.8,-22.0152 -5,-32.6441 -5.44,-17.9063 -16.96,-41.336 -33.74,-51.2852 85.28,50.543 120.5,148.9413 98.33,244.2263 -21.46,92.285 -95.54,154.942 -169.15,208.145 -14.65,10.613 -29.67,20.824 -44.87,30.715 -15.16,9.91 -30.67,19.199 -46.32,28.265 -12.85,7.422 -25.56,15.114 -38.25,22.754 -17.89,10.735 -35.72,21.582 -53.02,33.223 -27.54,18.555 -55.98,40.59 -70.8,71.101 -9.17,18.895 -12.68,38.899 -9.56,58.461 -21.16,-69.781 -15.63,-158.3 23.68,-221.746"
             style="fill:url(#linearGradient244);fill-opacity:1;fill-rule:nonzero;stroke:none"
             id="path246" /></g></g><path
         d="m 2176.9,977.625 v 75.575 h -253.5 v -75.575 h 74.33 V 790.66 h 104.84 v 186.965 z m 130.7,-29.98 -53.42,-156.985 h -102.43 l 100.39,262.54 h 110.88 l 100.43,-262.54 h -102.48 z m 384.19,29.98 v 75.575 h -253.51 v -75.575 h 74.34 V 790.66 h 104.84 v 186.965 z m 130.65,-29.98 -53.41,-156.985 h -102.44 l 100.4,262.54 h 110.89 L 2978.3,790.66 h -102.42 l -53.44,156.985"
         style="fill:#5083cc;fill-opacity:1;fill-rule:evenodd;stroke:none"
         id="path248" /><path
         d="m 2117.62,443.012 c -12.65,-5.727 -32.91,-9.567 -52.34,-9.567 -57.68,0 -91.36,36.692 -91.36,94.532 0,63.074 38.47,96.531 92.02,96.531 21.43,0 38.95,-4.742 51.16,-10.238 l 10.47,38.152 c -9.75,5.23 -32.02,11.613 -63.65,11.613 -80.22,0 -140.52,-52.129 -140.52,-138.457 0,-79.894 50.75,-132.285 134.04,-132.285 31.76,0 56.72,6.219 68.13,11.93 z m 145.43,-49.914 c 71.89,0 125.17,50.308 125.17,138.273 0,75.024 -45.14,132.828 -121.7,132.828 -74.11,0 -124.97,-56.886 -124.97,-137.519 0,-76.844 46.93,-133.582 121.08,-133.582 z m 1.22,38.41 c -45.83,0 -72.63,44.14 -72.5,96.351 -0.06,52.313 25.18,98.012 72.99,98.012 47.85,0 72.46,-46.816 72.46,-96.32 0,-54.938 -26.24,-98.043 -72.54,-98.043 z m 209.41,-34.063 v 93.907 c 0,43.105 -0.68,77.761 -2.51,111.843 l 1.21,0.278 c 12.91,-29.735 30.06,-61.895 47.06,-90.543 l 68.54,-115.485 h 49.64 v 262.489 h -44.32 v -91.579 c 0,-40.101 0.91,-73.937 4.26,-108.804 l -0.87,-0.246 c -12.12,28.484 -27.37,59.039 -44.73,87.933 l -67.82,112.696 h -54.82 V 397.445 Z m 207.47,12.571 c 14.34,-8.731 43.15,-16.723 70.95,-16.723 67.75,0 99.55,36.656 99.55,78.926 0,37.722 -21.94,60.629 -67.49,78.023 -35.08,13.371 -50.26,22.856 -50.26,42.973 0,15.457 12.95,31.621 43.37,31.621 24.66,0 42.98,-7.484 52.44,-12.488 l 11.5,38.711 c -13.71,6.972 -34.55,12.976 -62.94,12.976 -56.95,0 -92.92,-32.422 -92.92,-75.363 0,-37.676 27.73,-60.895 71.11,-76.285 33.13,-12.043 46.49,-23.758 46.49,-43.547 0,-21.512 -17.16,-35.836 -47.73,-35.836 -24.42,0 -47.98,7.809 -63.41,16.734 z m 213.36,249.918 V 509.746 c 0,-82.57 39.46,-116.648 99.99,-116.648 63.47,0 105.04,36.031 105.04,116.91 v 149.926 h -47.93 V 506.871 c 0,-51.469 -20.79,-75.164 -55.35,-75.164 -32.52,0 -53.77,23.891 -53.77,75.164 V 659.934 Z M 3154.2,397.445 h 155.89 v 40.25 h -107.98 v 222.239 h -47.91 z m 204.23,0 h 47.98 v 222.207 h 75.7 v 40.282 h -198.65 v -40.282 h 74.97 z m 261.67,74.184 23.76,-74.184 h 51.49 l -85.31,262.489 h -60.99 l -84.27,-262.489 h 49.55 l 22.4,74.184 z m -75.54,36.215 20.3,64.832 c 4.61,15.683 8.64,33.847 12.45,49.222 h 0.85 c 3.96,-15.175 8.31,-33.097 13.31,-49.339 l 20.72,-64.715 z m 231.53,-110.399 v 93.907 c 0,43.105 -0.65,77.761 -2.52,111.843 l 1.22,0.278 c 12.91,-29.735 30.03,-61.91 47.04,-90.543 l 68.54,-115.485 h 49.69 l 0.03,262.489 h -44.37 v -91.579 c 0,-40.117 0.89,-73.937 4.27,-108.804 l -0.91,-0.293 c -12.12,28.531 -27.32,59.086 -44.73,87.98 l -67.85,112.696 h -54.72 V 397.445 Z m 399.53,45.567 c -12.62,-5.727 -32.9,-9.567 -52.33,-9.567 -57.69,0 -91.38,36.692 -91.38,94.496 0,63.11 38.48,96.567 92.04,96.567 21.45,0 38.95,-4.742 51.16,-10.254 l 10.47,38.168 c -9.76,5.23 -32,11.613 -63.65,11.613 -80.22,0 -140.54,-52.129 -140.54,-138.457 0,-79.894 50.77,-132.285 134.04,-132.285 31.77,0 56.74,6.219 68.12,11.93 z m 156.15,-45.567 v 110.61 l 87.17,151.879 h -54.09 l -31.62,-67.243 c -8.93,-19.035 -16.23,-35.359 -22.71,-52.128 h -0.81 c -7.2,17.785 -13.96,32.699 -22.87,52.011 l -31.26,67.36 h -54.84 l 83.05,-153.223 V 397.445 h 47.98"
         style="fill:#5083cc;fill-opacity:1;fill-rule:evenodd;stroke:none"
         id="path250" /><path
         d="M 3315.83,16.6992 C 3330.17,7.96094 3358.98,0 3386.76,0 c 67.74,0 99.54,36.6602 99.54,78.8945 0,37.7075 -21.94,60.6445 -67.51,78.0035 -35.03,13.411 -50.19,22.875 -50.19,43.008 0,15.442 12.88,31.606 43.32,31.606 24.69,0 42.99,-7.449 52.44,-12.453 l 11.52,38.691 c -13.72,6.941 -34.56,12.98 -62.94,12.98 -56.98,0 -92.93,-32.394 -92.93,-75.335 0,-37.672 27.72,-60.907 71.09,-76.317 33.16,-12.058 46.5,-23.7264 46.5,-43.5311 0,-21.5274 -17.17,-35.8555 -47.72,-35.8555 -24.43,0 -47.98,7.7969 -63.4,16.7578 z m -42.2,143.0588 h -98.96 v 67.387 h 104.86 v 39.48 h -152.8 V 4.10156 h 158.56 V 43.5781 H 3174.67 V 120.57 h 98.96 z M 3078.31,49.6914 c -12.68,-5.7031 -32.96,-9.5 -52.34,-9.5 -57.69,0 -91.41,36.6524 -91.41,94.4766 0,63.09 38.51,96.547 92.05,96.547 21.43,0 38.94,-4.758 51.13,-10.27 l 10.47,38.18 c -9.73,5.254 -31.98,11.605 -63.6,11.605 -80.26,0 -140.56,-52.132 -140.56,-138.441 C 2884.05,52.3398 2934.8,0 3018.13,0 c 31.75,0 56.74,6.19922 68.08,11.9102 z M 2794.87,4.14844 h 47.98 V 266.625 h -47.98 z m -118.96,0 90.72,262.47656 h -51.03 l -38.27,-120.078 c -10.15,-31.863 -19.75,-63.9454 -26.73,-94.9259 h -0.78 c -6.86,31.7852 -15.77,62.4529 -25.73,95.6329 l -35.82,119.371 h -52.33 L 2620.89,4.14844 Z M 2283.97,159.758 h -98.95 v 67.387 h 104.84 v 39.48 H 2137.04 V 4.10156 h 158.58 V 43.5781 h -110.6 V 120.57 h 98.95 z M 1923.4,16.6992 C 1937.78,7.96094 1966.59,0 1994.37,0 c 67.77,0 99.58,36.6602 99.58,78.8945 0,37.7075 -21.97,60.6445 -67.52,78.0545 -35.08,13.36 -50.24,22.824 -50.24,42.957 0,15.442 12.91,31.606 43.37,31.606 24.66,0 42.94,-7.449 52.42,-12.453 l 11.52,38.691 c -13.73,6.941 -34.55,12.98 -62.97,12.98 -56.94,0 -92.88,-32.394 -92.88,-75.335 0,-37.672 27.7,-60.907 71.05,-76.317 33.18,-12.058 46.45,-23.7264 46.45,-43.5311 0,-21.5274 -17.13,-35.8555 -47.69,-35.8555 -24.4,0 -47.94,7.7969 -63.43,16.7578 z M 2337.62,4.14844 h 47.21 V 111.234 h 23.96 c 27.02,-0.671 39.38,-11.6793 46.83,-45.5934 7.32,-32.3906 13.57,-53.8711 17.51,-61.49216 h 48.93 c -5.24,10.14066 -12.34,40.02346 -20.56,72.59376 -6.5,25.3208 -17.46,43.2888 -36.33,50.4258 v 1.086 c 24.53,8.711 47.34,31.566 47.34,65.121 0,22.367 -8.16,40.332 -22.4,52.281 -17.62,14.668 -47.9,20.969 -80.37,20.969 -32.49,0 -54.03,-2.312 -72.12,-5.547 z M 2384.83,228.41 c 4.81,1.215 14.49,2.363 29.54,2.363 30.8,-0.082 50.75,-13.375 50.75,-41.793 0,-25.859 -19.9,-42.894 -52.18,-42.894 h -28.11 v 82.324"
         style="fill:#5083cc;fill-opacity:1;fill-rule:evenodd;stroke:none"
         id="path252" /></g></g></svg>
