<?xml version="1.0" encoding="UTF-8" standalone="no"?>
<!-- Created with Inkscape (http://www.inkscape.org/) -->

<svg
   version="1.1"
   id="svg2"
   xml:space="preserve"
   width="88.466667"
   height="88.466667"
   viewBox="0 0 88.466667 88.466667"
   sodipodi:docname="Dell Logo.eps"
   xmlns:inkscape="http://www.inkscape.org/namespaces/inkscape"
   xmlns:sodipodi="http://sodipodi.sourceforge.net/DTD/sodipodi-0.dtd"
   xmlns="http://www.w3.org/2000/svg"
   xmlns:svg="http://www.w3.org/2000/svg"><defs
     id="defs6" /><sodipodi:namedview
     id="namedview4"
     pagecolor="#ffffff"
     bordercolor="#666666"
     borderopacity="1.0"
     inkscape:pageshadow="2"
     inkscape:pageopacity="0.0"
     inkscape:pagecheckerboard="0" /><g
     id="g8"
     inkscape:groupmode="layer"
     inkscape:label="ink_ext_XXXXXX"
     transform="matrix(1.3333333,0,0,-1.3333333,0,88.466667)"><g
       id="g10"
       transform="scale(0.1)"><path
         d="m 331.73,627.633 c -81.679,0 -155.644,-33.125 -209.191,-86.664 C 68.9727,487.406 35.8594,413.441 35.8594,331.754 c 0,-81.695 33.1133,-155.66 86.6796,-209.195 53.547,-53.5551 127.512,-86.6801 209.191,-86.6801 81.715,0 155.68,33.125 209.215,86.6801 53.567,53.535 86.684,127.5 86.684,209.195 0,81.687 -33.117,155.652 -86.684,209.215 -53.535,53.539 -127.5,86.664 -209.215,86.664 m 0,35.867 C 514.949,663.5 663.508,514.961 663.508,331.754 663.508,148.586 514.949,0 331.73,0 148.547,0 0,148.586 0,331.754 0,514.961 148.547,663.5 331.73,663.5"
         style="fill:#2286d0;fill-opacity:1;fill-rule:nonzero;stroke:none"
         id="path12" /><path
         d="m 174.785,334.363 c 0,19.414 -12.812,30.36 -30.93,30.36 h -11.113 v -60.719 h 10.821 c 16.835,0 31.222,9.211 31.222,30.359 M 372.59,312.578 290.676,248.164 215.789,307.051 C 204.988,281.105 178.977,263.008 148.84,263.008 H 84.8359 V 405.703 H 148.84 c 33.621,0 57.808,-21.254 66.902,-44.055 l 74.934,58.895 27.769,-21.844 -68.609,-53.953 13.144,-10.336 68.629,53.953 27.754,-21.808 -68.633,-53.977 13.176,-10.351 68.684,53.941 v 49.535 h 49.82 V 304.746 h 49.594 V 262.988 H 372.59 Z m 162.461,-7.859 h 49.59 v -41.731 h -99.414 v 142.715 h 49.824 V 304.719"
         style="fill:#2286d0;fill-opacity:1;fill-rule:nonzero;stroke:none"
         id="path14" /></g></g></svg>
