<?xml version="1.0" encoding="UTF-8" standalone="no"?>
<!-- Created with Inkscape (http://www.inkscape.org/) -->

<svg
   version="1.1"
   id="svg2"
   xml:space="preserve"
   width="101.33333"
   height="78.666664"
   viewBox="0 0 101.33333 78.666664"
   sodipodi:docname="Tech Mahindra Logo.eps"
   xmlns:inkscape="http://www.inkscape.org/namespaces/inkscape"
   xmlns:sodipodi="http://sodipodi.sourceforge.net/DTD/sodipodi-0.dtd"
   xmlns="http://www.w3.org/2000/svg"
   xmlns:svg="http://www.w3.org/2000/svg"><defs
     id="defs6" /><sodipodi:namedview
     id="namedview4"
     pagecolor="#ffffff"
     bordercolor="#666666"
     borderopacity="1.0"
     inkscape:pageshadow="2"
     inkscape:pageopacity="0.0"
     inkscape:pagecheckerboard="0" /><g
     id="g8"
     inkscape:groupmode="layer"
     inkscape:label="ink_ext_XXXXXX"
     transform="matrix(1.3333333,0,0,-1.3333333,0,78.666667)"><g
       id="g10"
       transform="scale(0.1)"><path
         d="m 116.402,272.676 c 26,0.199 23.024,1.586 23.024,-10.024 v -42.859 l 18.41,-0.004 v 43.945 c 0,6.012 -1.195,8.961 5.387,8.961 14.074,0 17.695,1.61 17.656,-7.875 l -0.02,-44.972 c 4.911,-0.09 14.157,-0.387 18.383,0.136 -0.215,14.145 -0.008,28.465 -0.008,42.668 0,5.68 0.84,15.051 -1.523,19.52 -2.707,5.133 -6.84,6.668 -14.367,6.656 -28.383,-0.031 -56.77,0 -85.176,0 -0.5117,-6.371 -0.2266,-57.613 -0.1719,-67.519 l 0.0273,-1.516 18.3676,-0.004 0.011,52.887"
         style="fill:#ed1c24;fill-opacity:1;fill-rule:evenodd;stroke:none"
         id="path12" /><path
         d="m 520.156,269.945 0.059,-37.504 c -8.117,-0.164 -16.192,0.02 -24.164,-0.027 -5.77,-0.035 -5.715,0.801 -5.688,6.461 0.114,21.418 -1.758,17.98 18.133,18.352 7.309,0.164 7.547,8.554 11.66,12.718 z m 0.059,0.391 c -5.289,0.266 -37.942,0.508 -40.863,-0.52 -5.539,-1.859 -7.493,-6.019 -7.473,-13.019 0.016,-6.973 0,-13.926 0,-20.848 0,-7.379 -0.77,-12.488 5.187,-15.308 3.274,-1.582 34.895,-0.848 40.934,-0.848 5.945,0 15.152,-0.551 20.734,0.062 l -0.019,68.915 -18.336,0.058 -0.164,-18.492"
         style="fill:#ed1c24;fill-opacity:1;fill-rule:evenodd;stroke:none"
         id="path14" /><path
         d="m 277.434,219.785 c 0.05,10.863 0.004,21.742 0.004,32.594 0,11.129 0.246,18.008 -14.387,17.988 -10.707,-0.008 -21.473,0 -32.16,0 -6.282,0 -9.735,1.031 -12.688,-3.461 -1.219,-1.816 -6.015,-8.242 -6.359,-9.683 12.156,0.168 24.398,0.019 36.562,0.019 7.375,0 10.922,0.672 10.883,-7.418 -0.012,-5.797 0.234,-12.015 -0.031,-17.832 l -32.035,-0.015 c -0.754,9.285 0.097,7.847 8.41,7.847 4.84,0 11.414,-0.394 16.019,0.114 -0.074,10.273 1.95,10.144 -8.328,10.144 -36.988,0 -32.238,3.254 -32.406,-22.914 -0.039,-8.078 4.453,-7.375 11.551,-7.375 l 54.965,-0.008"
         style="fill:#ed1c24;fill-opacity:1;fill-rule:evenodd;stroke:none"
         id="path16" /><path
         d="m 665.086,219.77 c 0.117,10.878 0.008,21.757 0.008,32.609 0,11.012 0.187,18.008 -14.352,17.988 -10.722,-0.008 -21.429,0 -32.187,0 -6.492,0 -9.496,1.074 -12.731,-3.433 -1.086,-1.536 -6.039,-8.481 -6.324,-9.707 12.211,0.058 24.43,0.015 36.637,0.015 7.328,0 10.902,0.789 10.863,-7.414 -0.051,-5.746 0.203,-12.004 -0.125,-17.828 l -32.086,-0.023 0.242,6.785 c 0.977,2.195 18.696,0.586 24.332,1.176 -0.148,10.25 1.965,10.144 -8.371,10.144 -36.996,0 -32.293,3.34 -32.363,-22.926 -0.035,-7.836 4.094,-7.363 11.152,-7.363 18.157,0 37.469,0.293 55.305,-0.023"
         style="fill:#ed1c24;fill-opacity:1;fill-rule:evenodd;stroke:none"
         id="path18" /><path
         d="m 185.891,307.246 h 39.855 c 5.137,0 5.984,2.067 8.086,5.125 1.047,1.551 4.789,6.578 5.234,8.02 -11.906,-0.356 -24.394,-0.032 -36.371,-0.032 -6.976,0 -10.933,-0.785 -10.925,7.02 0.015,6.051 -0.153,12.219 0.027,18.242 l 31.988,0.024 c -0.031,-6.997 0.688,-7.856 -3.898,-7.856 l -20.301,0.012 -0.164,-5.656 c 0,-6.063 2.683,-4.625 8.418,-4.625 4.515,0 9.031,0 13.535,0 8.699,0 18.566,-2.2 18.566,7.886 0,21.903 2.075,22.434 -11.628,22.434 l -54.665,-0.004 c 0,-10.391 0,-20.813 0,-31.191 0,-8.149 -1.5,-19.399 12.243,-19.399"
         style="fill:#383a3b;fill-opacity:1;fill-rule:evenodd;stroke:none"
         id="path20" /><path
         d="m 307.5,257.309 c 5.043,-0.368 11.133,-0.067 16.27,-0.067 5.265,0 11.199,0.891 11.765,-4.847 0.367,-3.993 -0.023,-26.2 0.039,-32.602 l 18.446,0.141 c -0.196,9.168 -0.032,18.515 -0.032,27.691 0,9.297 1.551,17.633 -5.816,21.488 -4.317,2.285 -20.199,1.246 -26.242,1.262 -6.848,0.02 -6.02,-0.887 -8.981,-4.992 -1.707,-2.383 -4.07,-5.469 -5.379,-7.938 -0.574,2.481 -0.285,26.852 -0.238,31.379 h -18.48 l 0.019,-69.031 h 18.442 l 0.187,37.516"
         style="fill:#ed1c24;fill-opacity:1;fill-rule:evenodd;stroke:none"
         id="path22" /><path
         d="m 415.195,257.25 c 5.34,-0.062 10.75,-0.008 16.125,-0.008 5.485,0.004 9.934,0.387 10.106,-5.586 0.363,-10.328 0.097,-21.5 0.012,-31.863 l 18.496,-0.016 c -0.059,9.528 -0.012,19.082 -0.012,28.614 0,10.125 1.449,18.203 -7.231,21.375 -2.918,1.066 -50.011,1 -56.054,0.558 l -0.024,-50.523 18.582,0.004 v 37.445"
         style="fill:#ed1c24;fill-opacity:1;fill-rule:evenodd;stroke:none"
         id="path24" /><path
         d="m 98.0313,360.434 24.7887,-0.016 0.012,-52.988 c 2.277,-0.606 15.117,-0.242 18.41,-0.164 l -0.004,53.168 h 24.735 l 0.121,15.867 -68.0354,0.051 -0.0273,-15.918"
         style="fill:#383a3b;fill-opacity:1;fill-rule:evenodd;stroke:none"
         id="path26" /><path
         d="m 308.297,307.355 -0.012,12.606 c -2.187,0.492 -24.672,0.176 -28.758,0.176 -12.254,0 -10.504,0.722 -10.468,18.605 0,5.469 1.605,7.117 7.152,7.102 4.902,-0.008 9.758,-0.008 14.664,-0.008 11.527,0 12.605,-2.277 17.195,11.996 -13.566,0.371 -27.715,0.008 -41.363,0.008 -18.574,0 -15.977,-7.774 -15.977,-25.352 0,-17.718 -2.589,-25.242 15.977,-25.242 6.281,0 38.262,-0.422 41.59,0.109"
         style="fill:#383a3b;fill-opacity:1;fill-rule:evenodd;stroke:none"
         id="path28" /><path
         d="m 569.418,219.91 c 0.059,6.813 0.004,13.629 0.004,20.403 0,7.132 -1.387,15.339 3.558,16.757 5.129,1.446 14.668,-1.468 18.536,1.559 1.132,0.898 7.863,10.437 8.441,11.738 h -37.336 c -11.48,0.02 -11.758,-2.679 -11.758,-13.234 l 0.012,-37.344 18.543,0.121"
         style="fill:#ed1c24;fill-opacity:1;fill-rule:evenodd;stroke:none"
         id="path30" /><path
         d="m 319.582,307.262 18.195,-0.016 0.008,69.098 -18.133,0.008 -0.07,-69.09"
         style="fill:#383a3b;fill-opacity:1;fill-rule:evenodd;stroke:none"
         id="path32" /><path
         d="m 337.961,344.801 c 5.019,-0.438 11.379,-0.11 16.516,-0.11 14.261,0 11.859,-0.035 11.859,-20.957 0,-5.461 0.059,-10.894 -0.012,-16.351 l 18.219,-0.156 c 0.102,9.113 0,18.339 0,27.453 0,9.277 1.664,17.804 -5.633,21.836 -4.426,2.429 -20.047,1.324 -26.254,1.324 -7.34,0 -6.449,-0.727 -13.215,-10.652 l -1.48,-2.387"
         style="fill:#383a3b;fill-opacity:1;fill-rule:evenodd;stroke:none"
         id="path34" /><path
         d="m 384.543,269.707 c -1.93,-0.918 -3.668,-2.203 -5.574,-3.352 -6.41,-3.945 -12.567,-6.347 -12.848,-12.468 -0.512,-10.953 0.039,-23.039 -0.012,-34.094 h 18.434 v 49.914"
         style="fill:#ed1c24;fill-opacity:1;fill-rule:evenodd;stroke:none"
         id="path36" /><path
         d="m 366.109,264.109 c 0.786,0.297 16.723,10.524 18.344,12.047 l 0.086,12.688 -18.238,-0.016 -0.192,-24.719"
         style="fill:#ed1c24;fill-opacity:1;fill-rule:evenodd;stroke:none"
         id="path38" /></g></g></svg>
